<svg width="508" height="180" viewBox="0 0 508 180" fill="none" xmlns="http://www.w3.org/2000/svg">
<path d="M221.62 46.1233C219.092 45.0226 216.88 43.3065 215.185 41.1317L221.132 33.9953C222.039 35.4785 223.295 36.7176 224.79 37.6046C226.286 38.4916 227.975 38.9996 229.712 39.0843C234.079 39.0843 236.263 36.5301 236.263 31.4215V9.42709H220.001V0.828308H246.89V30.817C246.89 36.5106 245.486 40.7612 242.659 43.608C239.831 46.4548 235.698 47.8782 230.238 47.8782C227.274 47.9093 224.336 47.3111 221.62 46.1233Z" fill="white"/>
<path d="M262.586 42.3796C258.895 38.7399 257.055 33.5403 257.068 26.7808V0.828308H267.773V26.3324C267.773 34.6257 271.205 38.7659 278.068 38.7529C279.488 38.8495 280.911 38.6303 282.236 38.1111C283.561 37.5919 284.755 36.7856 285.731 35.7501C287.722 33.0335 288.664 29.6887 288.383 26.3324V0.828308H298.951V26.7222C298.951 33.5077 297.112 38.7073 293.433 42.321C289.748 45.9868 284.62 47.8196 278.01 47.8196C271.4 47.8196 266.252 46.0258 262.586 42.3796Z" fill="white"/>
<path d="M314.101 46.3768C311.146 45.5987 308.362 44.2762 305.892 42.4771L309.519 34.4242C311.676 35.9591 314.066 37.1376 316.597 37.9145C319.239 38.7908 322.003 39.2384 324.786 39.2404C327.108 39.3983 329.431 38.9338 331.513 37.895C332.183 37.5647 332.749 37.0576 333.151 36.4287C333.553 35.7998 333.776 35.073 333.795 34.3267C333.801 33.8012 333.689 33.2809 333.466 32.8048C333.243 32.3288 332.915 31.9093 332.508 31.5775C331.531 30.7927 330.412 30.2034 329.213 29.8421C327.867 29.3936 326.034 28.9062 323.753 28.3797C320.819 27.7163 317.928 26.8763 315.096 25.8643C312.832 25.0516 310.817 23.668 309.246 21.8477C307.551 19.7621 306.69 17.1221 306.828 14.4383C306.798 11.842 307.56 9.29815 309.012 7.14583C310.646 4.80963 312.931 3.0059 315.583 1.95929C318.992 0.575449 322.649 -0.0884082 326.327 0.00943783C329.238 0.00512862 332.139 0.358711 334.965 1.06231C337.579 1.67904 340.08 2.70566 342.374 4.10407L339.059 12.2154C335.18 9.90638 330.763 8.65585 326.249 8.5887C323.944 8.42403 321.641 8.93205 319.619 10.0511C318.946 10.4507 318.393 11.0231 318.016 11.7088C317.639 12.3945 317.452 13.1686 317.474 13.9508C317.47 14.7232 317.706 15.4779 318.15 16.1102C318.594 16.7425 319.223 17.2212 319.951 17.48C322.385 18.5053 324.921 19.2701 327.516 19.7614C330.443 20.4272 333.327 21.2671 336.154 22.2767C338.395 23.0751 340.404 24.4147 342.004 26.1764C343.695 28.2335 344.557 30.8481 344.421 33.5078C344.443 36.0905 343.667 38.6169 342.199 40.7417C340.533 43.0796 338.222 44.8819 335.55 45.9284C332.134 47.3105 328.47 47.9743 324.786 47.8782C321.171 47.8915 317.573 47.3858 314.101 46.3768Z" fill="white"/>
<path d="M360.586 9.56359H345.786V0.828308H386.09V9.56359H371.29V47.0787H360.586V9.56359Z" fill="white"/>
<path d="M229.985 75.6245H215.185V66.8892H255.489V75.6245H240.689V113.14H229.985V75.6245Z" fill="white"/>
<path d="M290.684 113.14L281.773 100.251H271.926V113.14H261.221V66.8892H281.246C284.9 66.7732 288.536 67.438 291.912 68.839C294.8 70.0397 297.25 72.0961 298.934 74.7315C300.618 77.367 301.454 80.455 301.33 83.5799C301.455 86.7005 300.606 89.7827 298.901 92.3994C297.196 95.0162 294.72 97.0378 291.814 98.1842L302.188 113.042L290.684 113.14ZM287.973 77.6913C285.846 76.1679 283.252 75.4367 280.642 75.6245H271.926V91.7302H280.642C283.258 91.9152 285.854 91.1692 287.973 89.6244C288.77 88.8486 289.404 87.9209 289.837 86.8961C290.269 85.8713 290.492 84.7702 290.492 83.6578C290.492 82.5455 290.269 81.4444 289.837 80.4196C289.404 79.3948 288.77 78.4671 287.973 77.6913Z" fill="white"/>
<path d="M340.229 103.234H318.781L314.686 113.14H303.728L324.338 66.8892H334.906L355.575 113.14H344.324L340.229 103.234ZM336.875 95.1035L329.544 77.3989L322.193 95.1035H336.875Z" fill="white"/>
<path d="M371.096 75.488V87.7136H392.544V96.293H371.096V113.14H360.391V66.8892H395.332V75.488H371.096Z" fill="white"/>
<path d="M413.31 75.488V87.7136H434.758V96.293H413.31V113.14H402.605V66.8892H437.546V75.488H413.31Z" fill="white"/>
<path d="M444.819 66.8892H455.504V113.14H444.819V66.8892Z" fill="white"/>
<path d="M475.822 110.858C472.104 108.891 468.996 105.945 466.833 102.337C464.698 98.5813 463.576 94.3349 463.576 90.0144C463.576 85.6939 464.698 81.4475 466.833 77.6913C468.996 74.0841 472.104 71.1374 475.822 69.1705C479.478 67.3324 483.485 66.2964 487.574 66.1316C491.663 65.9668 495.74 66.6772 499.532 68.2151C502.7 69.5654 505.5 71.6508 507.702 74.2986L500.838 80.6356C499.422 78.9102 497.634 77.5268 495.608 76.5882C493.583 75.6497 491.371 75.1802 489.139 75.215C486.458 75.1816 483.815 75.8541 481.476 77.1648C479.266 78.3803 477.447 80.1995 476.231 82.4099C474.99 84.7733 474.341 87.4032 474.341 90.0729C474.341 92.7427 474.99 95.3724 476.231 97.7358C477.451 99.9477 479.269 101.772 481.476 103C483.819 104.303 486.459 104.974 489.139 104.95C491.377 104.982 493.592 104.506 495.619 103.557C497.646 102.607 499.43 101.21 500.838 99.4711L507.702 105.808C505.511 108.49 502.7 110.598 499.512 111.95C496.063 113.398 492.353 114.121 488.613 114.076C484.147 114.093 479.748 112.987 475.822 110.858Z" fill="white"/>
<path d="M245.876 134.997C248.758 136.204 251.203 138.262 252.883 140.896C254.563 143.531 255.397 146.616 255.274 149.738C255.351 152.877 254.504 155.969 252.837 158.63C251.149 161.227 248.726 163.264 245.876 164.479C242.497 165.871 238.863 166.535 235.21 166.429H225.89V179.181H215.185V132.95H235.21C238.871 132.865 242.507 133.563 245.876 134.997ZM241.976 155.646C242.814 154.928 243.476 154.027 243.912 153.013C244.348 151.999 244.546 150.899 244.492 149.797C244.557 148.673 244.365 147.55 243.929 146.512C243.493 145.474 242.825 144.55 241.976 143.811C239.847 142.29 237.255 141.56 234.645 141.744H225.929V157.791H234.645C237.251 157.944 239.829 157.186 241.937 155.646H241.976Z" fill="white"/>
<path d="M292.341 179.2L283.43 166.312H273.584V179.2H262.879V132.95H282.904C286.557 132.834 290.193 133.499 293.57 134.9C296.415 136.122 298.836 138.157 300.53 140.749C301.849 142.696 302.719 144.911 303.075 147.235C303.431 149.559 303.265 151.933 302.589 154.184C301.913 156.436 300.744 158.509 299.167 160.252C297.59 161.996 295.645 163.367 293.472 164.265L303.845 179.123L292.341 179.2ZM289.631 143.752C287.502 142.232 284.909 141.501 282.299 141.685H273.584V157.791H282.299C284.915 157.974 287.511 157.229 289.631 155.685C290.428 154.909 291.062 153.982 291.494 152.957C291.927 151.932 292.15 150.831 292.15 149.719C292.15 148.606 291.927 147.505 291.494 146.48C291.062 145.456 290.428 144.528 289.631 143.752Z" fill="white"/>
<path d="M320.848 176.88C317.105 174.918 313.975 171.963 311.801 168.34C309.655 164.612 308.526 160.386 308.526 156.085C308.526 151.784 309.655 147.558 311.801 143.83C313.968 140.196 317.099 137.234 320.848 135.27C324.866 133.232 329.309 132.17 333.814 132.17C338.32 132.17 342.762 133.232 346.781 135.27C350.553 137.28 353.708 140.278 355.908 143.943C358.108 147.607 359.27 151.801 359.27 156.075C359.27 160.35 358.108 164.543 355.908 168.208C353.708 171.873 350.553 174.87 346.781 176.88C342.766 178.931 338.322 180 333.814 180C329.306 180 324.863 178.931 320.848 176.88ZM341.224 169.081C343.404 167.836 345.199 166.015 346.41 163.816C347.652 161.453 348.301 158.823 348.301 156.153C348.301 153.484 347.652 150.854 346.41 148.49C345.206 146.292 343.409 144.475 341.224 143.245C338.955 142.005 336.41 141.354 333.824 141.354C331.238 141.354 328.693 142.005 326.424 143.245C324.247 144.484 322.453 146.299 321.238 148.49C320.007 150.857 319.365 153.486 319.365 156.153C319.365 158.821 320.007 161.449 321.238 163.816C322.45 166.015 324.244 167.836 326.424 169.081C328.698 170.306 331.241 170.948 333.824 170.948C336.407 170.948 338.95 170.306 341.224 169.081Z" fill="white"/>
<path d="M0 0.340851L35.8187 36.1791L143.821 36.1596L143.84 144.201L179.64 180V0.340851H0Z" fill="white"/>
<path d="M108.061 108.421V71.9393H71.5789L108.061 108.421Z" fill="white"/>
</svg>
