<svg width="125" height="44" viewBox="0 0 125 44" fill="none" xmlns="http://www.w3.org/2000/svg">
<path d="M54.1552 11.2884C53.5376 11.0194 52.9971 10.6001 52.583 10.0687L54.0361 8.32498C54.2574 8.68769 54.5642 8.99067 54.9296 9.20744C55.295 9.42421 55.708 9.54815 56.1324 9.56845C57.1996 9.56845 57.7332 8.94434 57.7332 7.69609V2.32199H53.7693V0.225708H60.3393V7.55317C60.3393 8.93958 59.9962 9.98295 59.3054 10.6738C58.6146 11.3646 57.6046 11.7171 56.2706 11.7171C55.5429 11.7267 54.8217 11.5805 54.1552 11.2884Z" fill="white"/>
<path d="M64.1657 10.3784C63.2668 9.4827 62.8174 8.21223 62.8174 6.56696V0.225708H65.433V6.45263C65.433 8.47903 66.2715 9.49065 67.9485 9.48747C68.2954 9.51108 68.6433 9.45754 68.967 9.33068C69.2908 9.20381 69.5824 9.00679 69.8209 8.75378C70.305 8.08887 70.5349 7.27247 70.4688 6.45263V0.225708H73.0511V6.55267C73.0511 8.20588 72.5746 9.48272 71.7028 10.3641C70.8309 11.2455 69.5493 11.7029 67.9342 11.7029C66.3191 11.7029 65.0614 11.2693 64.1657 10.3784Z" fill="white"/>
<path d="M76.7519 11.3551C76.0298 11.165 75.3496 10.8418 74.7461 10.4022L75.6323 8.43459C76.1574 8.8112 76.7397 9.10079 77.3569 9.29218C78.0031 9.50248 78.6783 9.61018 79.3579 9.61138C79.9268 9.64988 80.4957 9.53643 81.0064 9.28264C81.1672 9.19836 81.302 9.07169 81.396 8.91634C81.4901 8.76098 81.5399 8.58284 81.54 8.40123C81.5418 8.27344 81.5145 8.14692 81.46 8.03132C81.4055 7.91572 81.3253 7.81412 81.2255 7.73425C80.9872 7.53825 80.7117 7.39241 80.4156 7.30547C80.098 7.1943 79.6549 7.0752 79.0864 6.94815C78.3691 6.78959 77.6626 6.58591 76.971 6.33832C76.4177 6.138 75.9254 5.79832 75.5417 5.35211C75.1313 4.83773 74.9275 4.18881 74.97 3.53215C74.9629 2.89633 75.1489 2.27331 75.5036 1.74555C75.9043 1.17607 76.4622 0.735686 77.1092 0.478249C77.9411 0.142857 78.8328 -0.0192587 79.7295 0.00182109C80.4425 0.000473923 81.153 0.0868845 81.8449 0.259096C82.4838 0.409788 83.0948 0.660632 83.6553 1.00232L82.8454 2.98902C81.8987 2.4215 80.8189 2.11416 79.7152 2.0981C79.152 2.05703 78.5891 2.18122 78.0954 2.45542C77.9308 2.55322 77.7951 2.69296 77.7022 2.86037C77.6093 3.02778 77.5625 3.21686 77.5666 3.40828C77.5666 3.59734 77.6246 3.78185 77.7328 3.9369C77.841 4.09195 77.9942 4.21008 78.1716 4.27538C78.7682 4.52083 79.3873 4.70753 80.0202 4.83281C80.7374 4.99136 81.4439 5.19504 82.1355 5.44264C82.6832 5.63755 83.1742 5.96489 83.5648 6.39549C83.9772 6.89837 84.1862 7.53748 84.1508 8.18686C84.1566 8.81728 83.9687 9.43426 83.6124 9.95439C83.2029 10.5232 82.6392 10.9629 81.9878 11.2217C81.1525 11.5571 80.2578 11.7192 79.3579 11.6981C78.4775 11.7063 77.6002 11.5908 76.7519 11.3551Z" fill="white"/>
<path d="M88.1102 2.35534H84.4941V0.225708H94.3419V2.35534H90.7258V11.5218H88.1102V2.35534Z" fill="white"/>
<path d="M56.1991 18.4967H52.583V16.3671H62.426V18.4967H58.8147V27.6632H56.1991V18.4967Z" fill="white"/>
<path d="M71.0309 27.6632L68.8536 24.5188H66.4476V27.6632H63.832V16.3671H68.725C69.6176 16.3388 70.5061 16.5012 71.331 16.8435C72.0273 17.1405 72.6194 17.6381 73.0319 18.2728C73.4262 18.9298 73.6345 19.6815 73.6345 20.4477C73.6345 21.2139 73.4262 21.9657 73.0319 22.6226C72.6081 23.2468 72.0099 23.7323 71.312 24.0185L73.8466 27.6489L71.0309 27.6632ZM70.3686 19.0065C69.8503 18.6307 69.2158 18.4502 68.5773 18.4967H66.4476V22.432H68.5773C69.2164 22.4772 69.8509 22.295 70.3686 21.9175C70.5633 21.7284 70.718 21.5021 70.8236 21.2521C70.9293 21.0021 70.9837 20.7334 70.9837 20.462C70.9837 20.1906 70.9293 19.922 70.8236 19.672C70.718 19.422 70.5633 19.1957 70.3686 19.0065Z" fill="white"/>
<path d="M83.1365 25.2429H77.8958L76.8953 27.6632H74.2178L79.2536 16.3671H81.8359L86.886 27.6632H84.1418L83.1365 25.2429ZM82.3123 23.2562L80.5209 18.9303L78.7295 23.2562H82.3123Z" fill="white"/>
<path d="M90.6736 18.4634V21.4505H95.9143V23.5421H90.6736V27.6584H88.0723V16.3671H96.6003V18.4634H90.6736Z" fill="white"/>
<path d="M100.989 18.4634V21.4505H106.229V23.5421H100.989V27.6584H98.373V16.3671H106.915V18.4634H100.989Z" fill="white"/>
<path d="M108.688 16.3671H111.303V27.6632H108.688V16.3671Z" fill="white"/>
<path d="M116.267 27.1058C115.357 26.6266 114.597 25.9063 114.07 25.0238C113.549 24.1069 113.274 23.0701 113.274 22.0151C113.274 20.9602 113.549 19.9234 114.07 19.0065C114.597 18.1227 115.357 17.4008 116.267 16.9197C117.234 16.4111 118.314 16.1539 119.406 16.1718C120.317 16.1586 121.22 16.3338 122.06 16.6863C122.833 17.0178 123.517 17.5271 124.056 18.1727L122.375 19.7307C122.029 19.3083 121.592 18.9697 121.097 18.7403C120.602 18.5109 120.062 18.3966 119.516 18.4062C118.861 18.4016 118.216 18.5656 117.644 18.8826C117.104 19.1796 116.659 19.6241 116.362 20.1642C116.059 20.7417 115.9 21.3843 115.9 22.0366C115.9 22.6889 116.059 23.3315 116.362 23.909C116.659 24.4503 117.103 24.8964 117.644 25.1953C118.216 25.5135 118.861 25.6776 119.516 25.6717C120.063 25.682 120.605 25.5667 121.101 25.3346C121.596 25.1025 122.032 24.7598 122.375 24.333L124.056 25.8813C123.521 26.5366 122.834 27.0517 122.055 27.3821C121.213 27.7376 120.306 27.9144 119.392 27.9014C118.3 27.9032 117.225 27.6296 116.267 27.1058Z" fill="white"/>
<path d="M60.082 33.0087C60.5941 33.2543 61.0489 33.6047 61.4169 34.0373C61.7849 34.4699 62.058 34.9749 62.2183 35.5198C62.3787 36.0646 62.4228 36.6371 62.3477 37.2C62.2727 37.763 62.0803 38.3039 61.7828 38.7878C61.3704 39.4225 60.7783 39.9201 60.082 40.2171C59.2547 40.557 58.3652 40.7193 57.4711 40.6935H55.1986V43.8093H52.583V32.5085H57.4711C58.3671 32.4877 59.2572 32.6583 60.082 33.0087ZM59.1291 38.0493C59.3235 37.861 59.478 37.6355 59.5836 37.3863C59.6891 37.1371 59.7435 36.8692 59.7435 36.5986C59.7435 36.328 59.6891 36.0601 59.5836 35.8109C59.478 35.5617 59.3235 35.3362 59.1291 35.1479C58.6106 34.7725 57.9763 34.5919 57.3377 34.6381H55.1986V38.5591H57.3282C57.9667 38.6052 58.6011 38.4247 59.1196 38.0493H59.1291Z" fill="white"/>
<path d="M71.4355 43.8046L69.2582 40.6601H66.8523V43.8046H64.251V32.5085H69.1439C70.0366 32.4801 70.925 32.6426 71.7499 32.9849C72.4492 33.2846 73.0451 33.783 73.4639 34.4181C73.8827 35.0533 74.1059 35.7973 74.1059 36.5581C74.1059 37.3189 73.8827 38.063 73.4639 38.6981C73.0451 39.3333 72.4492 39.8316 71.7499 40.1313L74.2845 43.7617L71.4355 43.8046ZM70.7733 35.1479C70.2547 34.7725 69.6204 34.5919 68.9819 34.6381H66.8523V38.5734H68.9819C69.621 38.6182 70.2554 38.4359 70.7733 38.0588C70.9679 37.8697 71.1226 37.6434 71.2283 37.3934C71.3339 37.1434 71.3884 36.8748 71.3884 36.6034C71.3884 36.3319 71.3339 36.0633 71.2283 35.8133C71.1226 35.5633 70.9679 35.337 70.7733 35.1479Z" fill="white"/>
<path d="M78.4004 43.2424C77.4856 42.7613 76.7207 42.0378 76.1898 41.1509C75.6656 40.2401 75.3896 39.2075 75.3896 38.1566C75.3896 37.1056 75.6656 36.0731 76.1898 35.1622C76.7207 34.2754 77.4856 33.5518 78.4004 33.0707C79.3823 32.5727 80.4677 32.3131 81.5687 32.3131C82.6696 32.3131 83.755 32.5727 84.7369 33.0707C85.6492 33.5553 86.4132 34.2781 86.9475 35.1622C87.475 36.072 87.7528 37.1049 87.7528 38.1566C87.7528 39.2082 87.475 40.2412 86.9475 41.1509C86.4132 42.035 85.6492 42.7578 84.7369 43.2424C83.755 43.7405 82.6696 44 81.5687 44C80.4677 44 79.3823 43.7405 78.4004 43.2424ZM83.3791 41.3129C83.9131 41.0106 84.3521 40.5651 84.6464 40.0265C84.9498 39.4491 85.1083 38.8065 85.1083 38.1542C85.1083 37.5019 84.9498 36.8593 84.6464 36.2818C84.352 35.7446 83.913 35.3006 83.3791 35.0002C82.8247 34.6971 82.2029 34.5382 81.571 34.5382C80.9392 34.5382 80.3174 34.6971 79.763 35.0002C79.2309 35.303 78.7925 35.7464 78.4957 36.2818C78.195 36.8601 78.0381 37.5024 78.0381 38.1542C78.0381 38.806 78.195 39.4482 78.4957 40.0265C78.7918 40.5637 79.2303 41.0088 79.763 41.3129C80.3186 41.6123 80.9399 41.7691 81.571 41.7691C82.2022 41.7691 82.8235 41.6123 83.3791 41.3129Z" fill="white"/>
<path d="M0 0.106628L8.75198 8.85861L35.1461 8.85384L35.1509 35.2527L43.8981 43.9999V0.106628H0Z" fill="#00A7E1"/>
<path d="M26.4037 26.5103V17.5963H17.4897L26.4037 26.5103Z" fill="#00A7E1"/>
</svg>
